<mxfile host="65bd71144e">
    <diagram id="xZc4fDsWBo4OEduQYVHD" name="Page-1">
        <mxGraphModel dx="1187" dy="987" grid="1" gridSize="10" guides="1" tooltips="1" connect="1" arrows="1" fold="1" page="1" pageScale="1" pageWidth="850" pageHeight="1100" math="0" shadow="0">
            <root>
                <mxCell id="0"/>
                <mxCell id="1" parent="0"/>
                <mxCell id="6" value="&lt;div style=&quot;&quot;&gt;&lt;font style=&quot;font-size: 15px;&quot;&gt;&lt;b style=&quot;background-color: transparent;&quot;&gt;Color Scheme:&lt;/b&gt;&lt;span style=&quot;background-color: transparent;&quot;&gt;&amp;nbsp;&lt;/span&gt;&lt;/font&gt;&lt;/div&gt;&lt;div style=&quot;&quot;&gt;&lt;span style=&quot;background-color: transparent;&quot;&gt;&lt;font style=&quot;font-size: 15px;&quot;&gt;(Modern, Techy, Tropical, night-life feel)&lt;/font&gt;&lt;/span&gt;&lt;/div&gt;&lt;font style=&quot;color: rgb(18, 18, 18); font-size: 15px;&quot;&gt;&lt;div style=&quot;text-align: left;&quot;&gt;&lt;span style=&quot;background-color: transparent;&quot;&gt;- Background Color:&amp;nbsp;&lt;/span&gt;&lt;span style=&quot;background-color: transparent; line-height: 18.4px; color: rgb(0, 0, 0);&quot;&gt;#&lt;span style=&quot;line-height: 15.3333px; color: rgb(0, 0, 0);&quot;&gt;121212&lt;/span&gt;&lt;span style=&quot;color: rgb(0, 0, 0);&quot;&gt;&lt;/span&gt;&amp;nbsp;(Black)&lt;/span&gt;&lt;/div&gt;&lt;font face=&quot;Helvetica&quot;&gt;&lt;div style=&quot;text-align: left;&quot;&gt;&lt;span style=&quot;background-color: transparent;&quot;&gt;- Accent Color 1:&amp;nbsp;&lt;/span&gt;&lt;span style=&quot;background-color: transparent; line-height: 18.4px; color: rgb(0, 0, 0);&quot;&gt;#&lt;/span&gt;&lt;span style=&quot;background-color: transparent; line-height: 18.4px; color: rgb(0, 0, 0);&quot;&gt;&lt;font&gt;FE16D0&lt;/font&gt;&lt;/span&gt;&lt;span style=&quot;background-color: transparent; line-height: 18.4px; color: rgb(0, 0, 0);&quot;&gt;&amp;nbsp;(Magenta)&lt;/span&gt;&lt;/div&gt;&lt;div style=&quot;text-align: left;&quot;&gt;&lt;span style=&quot;background-color: transparent;&quot;&gt;- Accent Color 2:&amp;nbsp;&lt;/span&gt;&lt;span style=&quot;background-color: transparent; line-height: 18.4px; color: rgb(0, 0, 0);&quot;&gt;#&lt;/span&gt;&lt;span style=&quot;background-color: transparent; line-height: 18.4px; color: rgb(0, 0, 0);&quot;&gt;&lt;font&gt;A2FE32&lt;/font&gt;&lt;/span&gt;&lt;span style=&quot;background-color: transparent; line-height: 18.4px; color: rgb(0, 0, 0);&quot;&gt;&amp;nbsp;(Neon Green)&lt;/span&gt;&lt;/div&gt;&lt;/font&gt;&lt;/font&gt;&lt;div&gt;&lt;div style=&quot;text-align: left;&quot;&gt;&lt;font style=&quot;font-size: 15px;&quot;&gt;&lt;span style=&quot;scrollbar-color: light-dark(#e2e2e2, #4b4b4b)&lt;br/&gt;&#x9;&#x9;&#x9;&#x9;&#x9;light-dark(#fbfbfb, var(--dark-panel-color)); line-height: 18.4px;&quot;&gt;&lt;span style=&quot;scrollbar-color: light-dark(#e2e2e2, #4b4b4b)&lt;br/&gt;&#x9;&#x9;&#x9;&#x9;&#x9;light-dark(#fbfbfb, var(--dark-panel-color)); line-height: 18.4px;&quot;&gt;&lt;font style=&quot;&quot; face=&quot;Helvetica&quot;&gt;&lt;span style=&quot;color: rgb(102, 102, 102);&quot;&gt;- &lt;/span&gt;&lt;span style=&quot;color: rgb(102, 102, 102);&quot;&gt;&lt;font style=&quot;color: rgb(18, 18, 18);&quot;&gt;Primary Text&lt;/font&gt;&lt;/span&gt;&lt;span style=&quot;color: rgb(102, 102, 102);&quot;&gt;:&amp;nbsp;&lt;/span&gt;&lt;span style=&quot;color: rgb(0, 0, 0); scrollbar-color: light-dark(#e2e2e2, #4b4b4b)&lt;br/&gt;&#x9;&#x9;&#x9;&#x9;&#x9;light-dark(#fbfbfb, var(--dark-panel-color)); line-height: 18.4px;&quot;&gt;#&lt;/span&gt;&lt;/font&gt;&lt;/span&gt;&lt;/span&gt;&lt;span style=&quot;color: light-dark(rgb(18, 18, 18), rgb(222, 222, 222)); background-color: transparent;&quot;&gt;&lt;font&gt;FFFFFF&lt;/font&gt;&lt;/span&gt;&lt;span style=&quot;color: light-dark(rgb(18, 18, 18), rgb(222, 222, 222)); background-color: transparent;&quot;&gt;&amp;nbsp;(White)&lt;/span&gt;&lt;/font&gt;&lt;/div&gt;&lt;/div&gt;" style="strokeWidth=1;shadow=0;dashed=0;align=center;html=1;shape=mxgraph.mockup.text.stickyNote2;fontColor=#666666;mainText=;fontSize=17;whiteSpace=wrap;fillColor=#ffffcc;strokeColor=#F62E00;" parent="1" vertex="1">
                    <mxGeometry x="30" y="10" width="340" height="170" as="geometry"/>
                </mxCell>
                <mxCell id="11" value="&lt;b&gt;&lt;font style=&quot;font-size: 15px; color: rgb(18, 18, 18);&quot;&gt;Fonts&lt;/font&gt;&lt;/b&gt;&lt;div&gt;&lt;font style=&quot;font-size: 15px; color: rgb(18, 18, 18);&quot;&gt;&lt;b&gt;&amp;nbsp;(&lt;/b&gt;&lt;span&gt;Modern, Techy, Tropical, night-life feel&lt;/span&gt;&lt;b&gt;)&lt;/b&gt;&lt;br&gt;&lt;div style=&quot;&quot;&gt;&lt;span style=&quot;background-color: transparent;&quot;&gt;- Headings: &lt;b&gt;Oswald&lt;/b&gt;&lt;/span&gt;&lt;/div&gt;&lt;/font&gt;&lt;div style=&quot;&quot;&gt;&lt;font style=&quot;font-size: 15px; color: rgb(18, 18, 18);&quot;&gt;&lt;span&gt;- Body Text: &lt;b&gt;Inter&lt;/b&gt;&lt;/span&gt;&lt;br&gt;&lt;/font&gt;&lt;/div&gt;&lt;div style=&quot;&quot;&gt;&lt;font style=&quot;font-size: 15px; color: rgb(18, 18, 18);&quot;&gt;&lt;span&gt;- Gallery Captions: &lt;b&gt;Bebas Neue&lt;/b&gt;&lt;/span&gt;&lt;span&gt;&lt;br&gt;&lt;/span&gt;&lt;/font&gt;&lt;/div&gt;&lt;div style=&quot;&quot;&gt;&lt;span&gt;&lt;font style=&quot;font-size: 15px; color: rgb(18, 18, 18);&quot;&gt;- Buttons: &lt;b style=&quot;&quot;&gt;Poppins&lt;/b&gt;&lt;/font&gt;&lt;/span&gt;&lt;span style=&quot;color: rgb(102, 102, 102);&quot;&gt;&lt;br&gt;&lt;/span&gt;&lt;/div&gt;&lt;/div&gt;" style="strokeWidth=1;shadow=0;dashed=0;align=center;html=1;shape=mxgraph.mockup.text.stickyNote2;fontColor=#666666;mainText=;fontSize=17;whiteSpace=wrap;fillColor=#ffffcc;strokeColor=#F62E00;" parent="1" vertex="1">
                    <mxGeometry x="350" y="20" width="360" height="150" as="geometry"/>
                </mxCell>
                <mxCell id="12" value="&lt;font style=&quot;color: rgb(18, 18, 18);&quot;&gt;&lt;b&gt;Navigation&lt;/b&gt; &lt;b&gt;Placement&lt;/b&gt;&lt;br&gt;(Responsive Design/Mobile First)&lt;br&gt;&lt;/font&gt;&lt;div&gt;&lt;font style=&quot;color: rgb(18, 18, 18);&quot;&gt;- Hamburger Mobile&lt;br&gt;- Horizontal Widescreen&lt;br&gt;&lt;/font&gt;&lt;span style=&quot;color: rgba(0, 0, 0, 0); font-family: monospace; font-size: 0px; text-align: start;&quot;&gt;%3CmxGraphModel%3E%3Croot%3E%3CmxCell%20id%3D%220%22%2F%3E%3CmxCell%20id%3D%221%22%20parent%3D%220%22%2F%3E%3CmxCell%20id%3D%222%22%20value%3D%22Fonts%3A%26amp%3Bnbsp%3B%26lt%3Bbr%26gt%3B-%22%20style%3D%22strokeWidth%3D1%3Bshadow%3D0%3Bdashed%3D0%3Balign%3Dcenter%3Bhtml%3D1%3Bshape%3Dmxgraph.mockup.text.stickyNote2%3BfontColor%3D%23666666%3BmainText%3D%3BfontSize%3D17%3BwhiteSpace%3Dwrap%3BfillColor%3D%23ffffcc%3BstrokeColor%3D%23F62E00%3B%22%20vertex%3D%221%22%20parent%3D%221%22%3E%3CmxGeometry%20x%3D%22370%22%20y%3D%2240%22%20width%3D%22280%22%20height%3D%22240%22%20as%3D%22geometry%22%2F%3E%3C%2FmxCell%3E%3C%2Froot%3E%3C%2FmxGraphModel%3E&lt;/span&gt;&lt;/div&gt;" style="strokeWidth=1;shadow=0;dashed=0;align=center;html=1;shape=mxgraph.mockup.text.stickyNote2;fontColor=#666666;mainText=;fontSize=17;whiteSpace=wrap;fillColor=#ffffcc;strokeColor=#F62E00;" parent="1" vertex="1">
                    <mxGeometry x="20" y="190" width="330" height="140" as="geometry"/>
                </mxCell>
                <mxCell id="13" value="&lt;font style=&quot;color: rgb(18, 18, 18);&quot;&gt;&lt;b&gt;Gallery&lt;/b&gt;&amp;nbsp;&lt;br&gt;- Grid Layout&lt;br&gt;- Linking to projects&lt;/font&gt;" style="strokeWidth=1;shadow=0;dashed=0;align=center;html=1;shape=mxgraph.mockup.text.stickyNote2;fontColor=#666666;mainText=;fontSize=17;whiteSpace=wrap;fillColor=#ffffcc;strokeColor=#F62E00;" parent="1" vertex="1">
                    <mxGeometry x="610" y="190" width="220" height="120" as="geometry"/>
                </mxCell>
                <mxCell id="15" value="" style="strokeWidth=5;shadow=0;dashed=0;align=center;html=1;shape=mxgraph.mockup.containers.browserWindow;rSize=0;strokeColor=#FE16D0;strokeColor2=#008cff;strokeColor3=#c4c4c4;mainText=,;recursiveResize=0;fillColor=#121212;gradientColor=none;fontColor=#FF005D;" parent="1" vertex="1">
                    <mxGeometry x="20" y="420" width="300" height="590" as="geometry"/>
                </mxCell>
                <mxCell id="16" value="Mobile" style="strokeWidth=1;shadow=0;dashed=0;align=center;html=1;shape=mxgraph.mockup.containers.anchor;fontSize=17;fontColor=#666666;align=left;whiteSpace=wrap;" parent="15" vertex="1">
                    <mxGeometry x="60" y="12" width="110" height="26" as="geometry"/>
                </mxCell>
                <mxCell id="17" value="https://www.draw.io" style="strokeWidth=1;shadow=0;dashed=0;align=center;html=1;shape=mxgraph.mockup.containers.anchor;rSize=0;fontSize=17;fontColor=#666666;align=left;" parent="15" vertex="1">
                    <mxGeometry x="130" y="60" width="250" height="26" as="geometry"/>
                </mxCell>
                <mxCell id="24" value="" style="verticalLabelPosition=bottom;shadow=0;dashed=0;align=center;html=1;verticalAlign=top;strokeWidth=1;shape=mxgraph.mockup.graphics.simpleIcon;strokeColor=#999999;gradientColor=#FE16D0;" parent="15" vertex="1">
                    <mxGeometry x="125" y="470" width="50" height="50" as="geometry"/>
                </mxCell>
                <mxCell id="25" value="" style="verticalLabelPosition=bottom;shadow=0;dashed=0;align=center;html=1;verticalAlign=top;strokeWidth=1;shape=mxgraph.mockup.graphics.simpleIcon;strokeColor=#999999;gradientColor=#A2FE32;" parent="15" vertex="1">
                    <mxGeometry x="125" y="360" width="50" height="50" as="geometry"/>
                </mxCell>
                <mxCell id="26" value="" style="verticalLabelPosition=bottom;shadow=0;dashed=0;align=center;html=1;verticalAlign=top;strokeWidth=1;shape=mxgraph.mockup.graphics.simpleIcon;strokeColor=#999999;gradientColor=#FE16D0;" parent="15" vertex="1">
                    <mxGeometry x="125" y="250" width="50" height="50" as="geometry"/>
                </mxCell>
                <mxCell id="37" value="" style="line;strokeWidth=2;html=1;strokeColor=#FE16D0;" parent="15" vertex="1">
                    <mxGeometry x="240" y="130" width="45" height="10" as="geometry"/>
                </mxCell>
                <mxCell id="38" value="" style="line;strokeWidth=2;html=1;strokeColor=#FE16D0;" parent="15" vertex="1">
                    <mxGeometry x="240" y="140" width="45" height="10" as="geometry"/>
                </mxCell>
                <mxCell id="39" value="" style="line;strokeWidth=2;html=1;strokeColor=#FE16D0;" parent="15" vertex="1">
                    <mxGeometry x="240" y="150" width="45" height="10" as="geometry"/>
                </mxCell>
                <mxCell id="46" value="" style="strokeColor=#121212;verticalLabelPosition=bottom;shadow=0;dashed=0;verticalAlign=top;strokeWidth=2;html=1;shape=mxgraph.mockup.misc.copyrightIcon;fillColor=#FFFFFF;" parent="15" vertex="1">
                    <mxGeometry x="28" y="550" width="25" height="25" as="geometry"/>
                </mxCell>
                <mxCell id="74" value="&lt;font data-font-src=&quot;https://fonts.googleapis.com/css?family=Poppins&quot; face=&quot;Poppins&quot; style=&quot;color: rgb(255, 255, 255); font-size: 24px;&quot;&gt;Gallery&lt;/font&gt;" style="strokeWidth=9;shadow=0;dashed=0;align=center;html=1;shape=mxgraph.mockup.buttons.button;strokeColor=#121212;fontColor=#ffffff;mainText=;buttonStyle=round;fontSize=17;fontStyle=1;fillColor=#121212;whiteSpace=wrap;fontFamily=Oswald;fontSource=https%3A%2F%2Ffonts.googleapis.com%2Fcss%3Ffamily%3DOswald;" parent="15" vertex="1">
                    <mxGeometry x="90" y="170" width="120" height="50" as="geometry"/>
                </mxCell>
                <mxCell id="75" value="" style="line;strokeWidth=2;html=1;fontColor=#FE16D0;strokeColor=#FE16D0;" parent="15" vertex="1">
                    <mxGeometry x="100" y="200" width="100" height="30" as="geometry"/>
                </mxCell>
                <mxCell id="79" value="" style="strokeWidth=9;shadow=0;dashed=0;align=center;html=1;shape=mxgraph.mockup.rrect;rSize=10;fillColor=#F5F5DC;strokeColor=#121212;labelBackgroundColor=#A2FE32;fontFamily=Oswald;fontSource=https%3A%2F%2Ffonts.googleapis.com%2Fcss%3Ffamily%3DOswald;" vertex="1" parent="15">
                    <mxGeometry x="15" y="130" width="45" height="30" as="geometry"/>
                </mxCell>
                <mxCell id="80" value="&lt;font style=&quot;color: rgb(254, 22, 208);&quot; face=&quot;Poppins&quot;&gt;Home&lt;/font&gt;" style="strokeWidth=2;shadow=0;dashed=0;align=center;html=1;shape=mxgraph.mockup.leftButton;rSize=10;fontSize=17;fontColor=#F5F5DC;fontStyle=1;fillColor=#121212;strokeColor=#FE16D0;resizeHeight=1;fontFamily=Oswald;fontSource=https%3A%2F%2Ffonts.googleapis.com%2Fcss%3Ffamily%3DOswald;" vertex="1" parent="79">
                    <mxGeometry width="95" height="30" relative="1" as="geometry"/>
                </mxCell>
                <mxCell id="21" value="" style="strokeWidth=5;shadow=0;dashed=0;align=center;html=1;shape=mxgraph.mockup.containers.browserWindow;rSize=0;strokeColor=#FE16D0;strokeColor2=#008cff;strokeColor3=#c4c4c4;mainText=,;recursiveResize=0;fillColor=#121212;fontFamily=Oswald;fontSource=https%3A%2F%2Ffonts.googleapis.com%2Fcss%3Ffamily%3DOswald;" parent="1" vertex="1">
                    <mxGeometry x="350" y="420" width="480" height="600" as="geometry"/>
                </mxCell>
                <mxCell id="22" value="Widescreen" style="strokeWidth=1;shadow=0;dashed=0;align=center;html=1;shape=mxgraph.mockup.containers.anchor;fontSize=17;fontColor=#666666;align=left;whiteSpace=wrap;" parent="21" vertex="1">
                    <mxGeometry x="60" y="12" width="110" height="26" as="geometry"/>
                </mxCell>
                <mxCell id="23" value="https://www.draw.io" style="strokeWidth=1;shadow=0;dashed=0;align=center;html=1;shape=mxgraph.mockup.containers.anchor;rSize=0;fontSize=17;fontColor=#666666;align=left;" parent="21" vertex="1">
                    <mxGeometry x="130" y="60" width="250" height="26" as="geometry"/>
                </mxCell>
                <mxCell id="27" value="" style="verticalLabelPosition=bottom;shadow=0;dashed=0;align=center;html=1;verticalAlign=top;strokeWidth=1;shape=mxgraph.mockup.graphics.simpleIcon;strokeColor=#999999;fillColor=#ffffff;gradientColor=#FE16D0;" parent="21" vertex="1">
                    <mxGeometry x="90" y="250" width="50" height="50" as="geometry"/>
                </mxCell>
                <mxCell id="28" value="" style="verticalLabelPosition=bottom;shadow=0;dashed=0;align=center;html=1;verticalAlign=top;strokeWidth=1;shape=mxgraph.mockup.graphics.simpleIcon;strokeColor=#999999;fillColor=#ffffff;gradientColor=#A2FE32;" parent="21" vertex="1">
                    <mxGeometry x="230" y="250" width="50" height="50" as="geometry"/>
                </mxCell>
                <mxCell id="29" value="" style="verticalLabelPosition=bottom;shadow=0;dashed=0;align=center;html=1;verticalAlign=top;strokeWidth=1;shape=mxgraph.mockup.graphics.simpleIcon;strokeColor=#999999;fillColor=#ffffff;gradientColor=#FE16D0;" parent="21" vertex="1">
                    <mxGeometry x="360" y="250" width="50" height="50" as="geometry"/>
                </mxCell>
                <mxCell id="30" value="" style="verticalLabelPosition=bottom;shadow=0;dashed=0;align=center;html=1;verticalAlign=top;strokeWidth=1;shape=mxgraph.mockup.graphics.simpleIcon;strokeColor=#999999;fillColor=#ffffff;gradientColor=#A2FE32;" parent="21" vertex="1">
                    <mxGeometry x="90" y="360" width="50" height="50" as="geometry"/>
                </mxCell>
                <mxCell id="31" value="" style="verticalLabelPosition=bottom;shadow=0;dashed=0;align=center;html=1;verticalAlign=top;strokeWidth=1;shape=mxgraph.mockup.graphics.simpleIcon;strokeColor=#999999;fillColor=#ffffff;gradientColor=#FE16D0;" parent="21" vertex="1">
                    <mxGeometry x="230" y="370" width="50" height="50" as="geometry"/>
                </mxCell>
                <mxCell id="32" value="" style="verticalLabelPosition=bottom;shadow=0;dashed=0;align=center;html=1;verticalAlign=top;strokeWidth=1;shape=mxgraph.mockup.graphics.simpleIcon;strokeColor=#999999;fillColor=#ffffff;gradientColor=#A2FE32;" parent="21" vertex="1">
                    <mxGeometry x="360" y="360" width="50" height="50" as="geometry"/>
                </mxCell>
                <mxCell id="33" value="" style="verticalLabelPosition=bottom;shadow=0;dashed=0;align=center;html=1;verticalAlign=top;strokeWidth=1;shape=mxgraph.mockup.graphics.simpleIcon;strokeColor=#999999;fillColor=#ffffff;gradientColor=#FE16D0;" parent="21" vertex="1">
                    <mxGeometry x="90" y="490" width="50" height="50" as="geometry"/>
                </mxCell>
                <mxCell id="34" value="" style="verticalLabelPosition=bottom;shadow=0;dashed=0;align=center;html=1;verticalAlign=top;strokeWidth=1;shape=mxgraph.mockup.graphics.simpleIcon;strokeColor=#999999;fillColor=#ffffff;gradientColor=#A2FE32;" parent="21" vertex="1">
                    <mxGeometry x="230" y="490" width="50" height="50" as="geometry"/>
                </mxCell>
                <mxCell id="35" value="" style="verticalLabelPosition=bottom;shadow=0;dashed=0;align=center;html=1;verticalAlign=top;strokeWidth=1;shape=mxgraph.mockup.graphics.simpleIcon;strokeColor=#999999;fillColor=#ffffff;gradientColor=#FE16D0;" parent="21" vertex="1">
                    <mxGeometry x="360" y="490" width="50" height="50" as="geometry"/>
                </mxCell>
                <mxCell id="54" value="" style="strokeWidth=9;shadow=0;dashed=0;align=center;html=1;shape=mxgraph.mockup.rrect;rSize=10;fillColor=#F5F5DC;strokeColor=#121212;labelBackgroundColor=#A2FE32;fontFamily=Oswald;fontSource=https%3A%2F%2Ffonts.googleapis.com%2Fcss%3Ffamily%3DOswald;" parent="21" vertex="1">
                    <mxGeometry x="280" y="140" width="45" height="30" as="geometry"/>
                </mxCell>
                <mxCell id="55" value="&lt;font style=&quot;color: rgb(254, 22, 208);&quot; face=&quot;Poppins&quot;&gt;GitHub&lt;/font&gt;" style="strokeWidth=2;shadow=0;dashed=0;align=center;html=1;shape=mxgraph.mockup.leftButton;rSize=10;fontSize=17;fontColor=#F5F5DC;fontStyle=1;fillColor=#121212;strokeColor=#FE16D0;resizeHeight=1;fontFamily=Oswald;fontSource=https%3A%2F%2Ffonts.googleapis.com%2Fcss%3Ffamily%3DOswald;" parent="54" vertex="1">
                    <mxGeometry width="95" height="30" relative="1" as="geometry"/>
                </mxCell>
                <mxCell id="56" value="" style="strokeWidth=9;shadow=0;dashed=0;align=center;html=1;shape=mxgraph.mockup.rrect;rSize=10;fillColor=#F5F5DC;strokeColor=#121212;labelBackgroundColor=#A2FE32;fontFamily=Oswald;fontSource=https%3A%2F%2Ffonts.googleapis.com%2Fcss%3Ffamily%3DOswald;" parent="21" vertex="1">
                    <mxGeometry x="380" y="140" width="50" height="30" as="geometry"/>
                </mxCell>
                <mxCell id="57" value="&lt;font style=&quot;color: rgb(18, 18, 18);&quot; face=&quot;Poppins&quot;&gt;LinkedIn&lt;/font&gt;" style="strokeWidth=2;shadow=0;dashed=0;align=center;html=1;shape=mxgraph.mockup.leftButton;rSize=10;fontSize=17;fontColor=#F5F5DC;fontStyle=1;fillColor=#A2FE32;strokeColor=#FFFFFF;resizeHeight=1;fontFamily=Oswald;fontSource=https%3A%2F%2Ffonts.googleapis.com%2Fcss%3Ffamily%3DOswald;" parent="56" vertex="1">
                    <mxGeometry width="95" height="30" relative="1" as="geometry"/>
                </mxCell>
                <mxCell id="61" value="" style="edgeStyle=none;html=1;" parent="21" source="58" target="27" edge="1">
                    <mxGeometry relative="1" as="geometry"/>
                </mxCell>
                <mxCell id="58" value="&lt;font data-font-src=&quot;https://fonts.googleapis.com/css?family=Poppins&quot; face=&quot;Poppins&quot; style=&quot;color: rgb(255, 255, 255);&quot;&gt;Gallery&lt;/font&gt;" style="strokeWidth=9;shadow=0;dashed=0;align=center;html=1;shape=mxgraph.mockup.buttons.button;strokeColor=#121212;fontColor=#ffffff;mainText=;buttonStyle=round;fontSize=17;fontStyle=1;fillColor=#121212;whiteSpace=wrap;fontFamily=Oswald;fontSource=https%3A%2F%2Ffonts.googleapis.com%2Fcss%3Ffamily%3DOswald;" parent="21" vertex="1">
                    <mxGeometry x="10" y="130" width="120" height="40" as="geometry"/>
                </mxCell>
                <mxCell id="59" value="&lt;font face=&quot;Poppins&quot; style=&quot;color: rgb(255, 255, 255);&quot;&gt;About&lt;/font&gt;" style="text;html=1;align=center;verticalAlign=middle;whiteSpace=wrap;rounded=0;" parent="21" vertex="1">
                    <mxGeometry x="120" y="135" width="60" height="30" as="geometry"/>
                </mxCell>
                <mxCell id="60" value="&lt;font data-font-src=&quot;https://fonts.googleapis.com/css?family=Poppins&quot; face=&quot;Poppins&quot; style=&quot;color: rgb(255, 255, 255);&quot;&gt;Contact&lt;/font&gt;&lt;div&gt;&lt;font style=&quot;color: rgb(255, 255, 255);&quot;&gt;&lt;br&gt;&lt;/font&gt;&lt;/div&gt;" style="text;html=1;align=center;verticalAlign=middle;whiteSpace=wrap;rounded=0;" parent="21" vertex="1">
                    <mxGeometry x="190" y="140" width="60" height="30" as="geometry"/>
                </mxCell>
                <mxCell id="62" value="" style="line;strokeWidth=2;html=1;fontColor=#FE16D0;strokeColor=#FE16D0;" parent="21" vertex="1">
                    <mxGeometry x="20" y="150" width="100" height="30" as="geometry"/>
                </mxCell>
                <mxCell id="73" value="" style="strokeColor=#121212;verticalLabelPosition=bottom;shadow=0;dashed=0;verticalAlign=top;strokeWidth=2;html=1;shape=mxgraph.mockup.misc.copyrightIcon;fillColor=#FFFFFF;" parent="21" vertex="1">
                    <mxGeometry x="35" y="560" width="25" height="25" as="geometry"/>
                </mxCell>
                <mxCell id="36" value="" style="endArrow=none;html=1;" parent="1" source="15" target="15" edge="1">
                    <mxGeometry width="50" height="50" relative="1" as="geometry">
                        <mxPoint x="260" y="740" as="sourcePoint"/>
                        <mxPoint x="310" y="690" as="targetPoint"/>
                    </mxGeometry>
                </mxCell>
                <mxCell id="76" value="&lt;font style=&quot;color: rgb(18, 18, 18);&quot;&gt;&lt;b&gt;Graphics&lt;/b&gt;&amp;nbsp;&lt;br&gt;- Palm Trees&lt;br&gt;- Speakers&lt;/font&gt;&lt;div&gt;&lt;font style=&quot;color: rgb(18, 18, 18);&quot;&gt;-Lazers&lt;/font&gt;&lt;/div&gt;&lt;div&gt;&lt;font style=&quot;color: rgb(18, 18, 18);&quot;&gt;- Grids&lt;/font&gt;&lt;/div&gt;&lt;div&gt;&lt;font style=&quot;color: rgb(18, 18, 18);&quot;&gt;-Spectrum Analyzers&lt;/font&gt;&lt;/div&gt;" style="strokeWidth=1;shadow=0;dashed=0;align=center;html=1;shape=mxgraph.mockup.text.stickyNote2;fontColor=#666666;mainText=;fontSize=17;whiteSpace=wrap;fillColor=#ffffcc;strokeColor=#F62E00;" vertex="1" parent="1">
                    <mxGeometry x="360" y="200" width="220" height="160" as="geometry"/>
                </mxCell>
            </root>
        </mxGraphModel>
    </diagram>
</mxfile>